<?xml version="1.0" encoding="utf-8"?>
<!-- Generator: Adobe Illustrator 25.4.1, SVG Export Plug-In . SVG Version: 6.00 Build 0)  -->
<svg version="1.1" id="Layer_1" xmlns="http://www.w3.org/2000/svg" xmlns:xlink="http://www.w3.org/1999/xlink" x="0px" y="0px"
	 viewBox="0 0 64 64" style="enable-background:new 0 0 64 64;" xml:space="preserve">
<style type="text/css">
	.st0{fill:#F9E3AE;}
	.st1{fill:#FAEFDE;}
	.st2{fill:#C2CDE7;}
	.st3{fill:#D6DFF2;}
	.st4{fill:#ACB7D0;}
	.st5{fill:#8D6C9F;}
</style>
<polygon class="st0" points="40.1,42 24.5,42 17,55 22,55 16.9,63.2 38,51 31,51 "/>
<polygon class="st0" points="46.1,42 35.5,42 27,55 33,55 30.9,61.2 46,51 39,51 "/>
<polygon class="st1" points="28.5,42 24.5,42 16,55 20,55 "/>
<polygon class="st1" points="39.5,42 35.5,42 27,55 31,55 "/>
<path class="st2" d="M52.7,24.8c2.2-10.7-4.8-21.2-15.5-23.4c-10-2-20,3.9-22.9,13.7C5.7,16.8,0,25.1,1.7,33.7
	c1.4,7.5,8.1,12.9,15.7,12.9h34.7c6,0.2,11-4.6,11.2-10.6C63.5,30,58.7,25,52.7,24.8L52.7,24.8z"/>
<path class="st3" d="M17.8,11.6c1,1,2.6,1,3.5,0c0.1-0.1,0.1-0.1,0.2-0.2C26.8,5,36.3,4.2,42.6,9.5c0.7,0.6,1.3,1.2,1.9,1.9
	c0.9,1.1,2.4,1.2,3.5,0.4c0.1-0.1,0.1-0.1,0.2-0.2l0,0c0.9-0.9,1-2.4,0.1-3.4c-7.1-8.5-19.7-9.6-28.2-2.5c-0.9,0.8-1.7,1.6-2.5,2.5
	C16.8,9.2,16.9,10.7,17.8,11.6z"/>
<polygon class="st4" points="6,42 61,42 55,47 13,47 "/>
<path class="st5" d="M56.4,24.7c0,0-0.1-0.1-0.1-0.1c-0.2-0.1-0.5-0.1-0.7-0.2c-0.2-0.1-0.4-0.1-0.6-0.2c-0.2-0.1-0.4-0.1-0.7-0.1
	L53.8,24c0.3-2,0.3-4,0-6C52.3,6.6,41.7-1.4,30.3,0.2C23,1.2,16.8,6,13.9,12.7l0,0c-0.2,0.4-0.3,0.8-0.4,1.1
	c-0.1,0.2-0.1,0.3-0.2,0.5c-9.1,2-14.9,11-12.8,20.2c1.8,8,9,13.6,17.2,13.2h2.4l-3.7,6.5c-0.2,0.3-0.2,0.7,0,1
	c0.2,0.3,0.5,0.5,0.9,0.5h3.2l-4.2,6.6c-0.3,0.5-0.1,1.1,0.3,1.4c0.2,0.1,0.3,0.2,0.5,0.2c0.2,0,0.3,0,0.5-0.1l13.9-8h0.3l-1.7,4.8
	c-0.1,0.4,0,0.8,0.3,1.1c0.2,0.1,0.4,0.2,0.6,0.2c0.2,0,0.4-0.1,0.6-0.2l15.1-10.2c0.4-0.2,0.5-0.7,0.4-1.1c-0.1-0.4-0.5-0.7-1-0.7
	h-5l1.6-2h9c6.5,0.1,11.9-5,12.3-11.5C64.2,31.2,61.1,26.5,56.4,24.7z M20.1,60l3-4.8c0.3-0.5,0.1-1.1-0.3-1.4
	c-0.2-0.1-0.3-0.1-0.5-0.2H19l3.4-6h8.1l-4.2,6.4c-0.3,0.5-0.2,1.1,0.3,1.4c0.2,0.1,0.3,0.2,0.5,0.2h0.3L20.1,60z M38.6,49.8
	l-0.2,0.3c-0.2,0.3-0.3,0.7-0.1,1.1c0.1,0.2,0.2,0.3,0.4,0.4c0.2,0.1,0.3,0.1,0.5,0.1h3.7L33,58.4l1.2-3.3c0.1-0.3,0.1-0.6-0.1-0.8
	L34,54.1c-0.2-0.3-0.5-0.4-0.8-0.4H29l1.5-2.3l2.4-3.7h7.3L38.6,49.8z M59,42.8L59,42.8v-2c0-0.5-0.4-1-1-1c-0.5,0-1,0.4-1,1v2
	c0,0.5,0.4,0.9,0.8,1c-1.8,1.3-3.9,2-6.1,2h-34c-3,0-6-0.9-8.6-2.5c0.1-0.1,0.1-0.3,0.1-0.5v-2c0-0.5-0.4-1-1-1s-1,0.4-1,1v1
	c-2.9-2.6-4.7-6.2-5-10.1c-0.3-6.8,3.9-12.9,10.4-15c-0.3,1.4-0.4,2.8-0.4,4.3c0,0.5,0.4,1,1,1c0.5,0,1-0.4,1-1
	c0-1.8,0.3-3.6,0.8-5.4l0,0c0.1-0.3,0.2-0.7,0.3-1c0.1-0.3,0.1-0.4,0.2-0.6C18.5,6.7,25.5,2,33.2,2C34,2,34.8,2,35.6,2.1
	C44,3.3,50.7,9.9,51.9,18.3c0.2,1.9,0.2,3.7-0.1,5.6c-0.6,0-1.2,0.1-1.8,0.2c-0.5,0.1-0.9,0.6-0.8,1.2c0.1,0.5,0.6,0.9,1.2,0.8
	c0.8-0.1,1.5-0.2,2.3-0.2c0.3,0,0.5,0,0.8,0.1h0.3c4.9,0.8,8.5,5.2,8.3,10.2C61.9,38.7,60.8,41,59,42.8z"/>
<path class="st5" d="M43.2,10c0.3-0.4,0.3-1.1-0.1-1.4c0,0,0,0,0,0c-0.8-0.6-1.6-1.2-2.5-1.7c-0.5-0.2-1.1,0-1.3,0.5
	c-0.2,0.5,0,1,0.4,1.3c0.8,0.4,1.5,0.9,2.2,1.5C42.2,10.5,42.9,10.4,43.2,10z"/>
<path class="st5" d="M36.4,5.4c-3.7-0.8-7.6-0.2-11,1.6c-0.5,0.3-0.7,0.9-0.4,1.4c0.3,0.5,0.9,0.7,1.4,0.4c2.9-1.6,6.3-2.1,9.6-1.4
	c0.6,0.1,1.1-0.2,1.2-0.8S37,5.4,36.4,5.4L36.4,5.4z"/>
<path class="st5" d="M13,40c-0.6,0-1,0.4-1,1v2c0,0.6,0.4,1,1,1s1-0.4,1-1v-2C14,40.4,13.6,40,13,40z"/>
<path class="st5" d="M18,40c-0.6,0-1,0.4-1,1v2c0,0.6,0.4,1,1,1s1-0.4,1-1v-2C19,40.4,18.6,40,18,40z"/>
<path class="st5" d="M28,40c-0.6,0-1,0.4-1,1v2c0,0.6,0.4,1,1,1s1-0.4,1-1v-2C29,40.4,28.6,40,28,40z"/>
<path class="st5" d="M23,40c-0.6,0-1,0.4-1,1v2c0,0.6,0.4,1,1,1s1-0.4,1-1v-2C24,40.4,23.6,40,23,40z"/>
<path class="st5" d="M38,40c-0.6,0-1,0.4-1,1v2c0,0.6,0.4,1,1,1s1-0.4,1-1v-2C39,40.4,38.6,40,38,40z"/>
<path class="st5" d="M33,40c-0.6,0-1,0.4-1,1v2c0,0.6,0.4,1,1,1s1-0.4,1-1v-2C34,40.4,33.6,40,33,40z"/>
<path class="st5" d="M43,40c-0.6,0-1,0.4-1,1v2c0,0.6,0.4,1,1,1s1-0.4,1-1v-2C44,40.4,43.6,40,43,40z"/>
<path class="st5" d="M53,40c-0.6,0-1,0.4-1,1v2c0,0.6,0.4,1,1,1s1-0.4,1-1v-2C54,40.4,53.6,40,53,40z"/>
<path class="st5" d="M48,40c-0.6,0-1,0.4-1,1v2c0,0.6,0.4,1,1,1s1-0.4,1-1v-2C49,40.4,48.6,40,48,40z"/>
<path class="st5" d="M11.5,53.1c-0.5-0.3-1.1-0.1-1.4,0.4c0,0,0,0,0,0l-3.4,5.9c-0.3,0.5-0.1,1.1,0.4,1.3c0.5,0.2,1,0.1,1.3-0.3
	l3.4-5.9C12.1,54,11.9,53.4,11.5,53.1C11.5,53.1,11.5,53.1,11.5,53.1z"/>
<path class="st5" d="M9,51.5c0.4,0,0.7-0.2,0.9-0.5l1-1.7c0.3-0.5,0.2-1.1-0.3-1.4s-1.1-0.2-1.4,0.3c0,0,0,0,0,0.1l-1,1.7
	c-0.3,0.5-0.2,1.1,0.3,1.4C8.6,51.5,8.8,51.6,9,51.5z"/>
<path class="st5" d="M53.4,49.1c-0.5-0.3-1.1-0.1-1.4,0.4c0,0,0,0,0,0l-3,5.2c-0.3,0.5-0.1,1.1,0.4,1.3c0.5,0.2,1,0.1,1.3-0.3l3-5.2
	C54.1,50,53.9,49.4,53.4,49.1C53.4,49.1,53.4,49.1,53.4,49.1z"/>
<path class="st5" d="M47.8,59.1c-0.5-0.3-1.1-0.1-1.4,0.4c0,0,0,0,0,0L46,60.3c-0.3,0.5-0.1,1.1,0.4,1.3c0.5,0.2,1,0.1,1.3-0.3
	l0.5-0.9C48.5,60,48.3,59.4,47.8,59.1C47.8,59.1,47.8,59.1,47.8,59.1z"/>
</svg>
